<?xml version="1.0" encoding="UTF-8"?>
<svg id="Layer_1" data-name="Layer 1" xmlns="http://www.w3.org/2000/svg" viewBox="0 0 217.68 198.12">
  <defs>
    <style>
      .cls-1 {
        fill: none;
      }

      .cls-2 {
        fill: #027d7c;
      }

      .cls-3 {
        fill: #616262;
      }
    </style>
  </defs>
  <rect class="cls-2" x="20.25" y="62.34" width="122.96" height="10.79"/>
  <rect class="cls-2" x="39.58" y="83.83" width="84.3" height="10.79"/>
  <path class="cls-1" d="M32.05,179.85v.16c4.6-2.11,8.84-4.75,12.71-7.84v-55.13h-12.71v62.8Z"/>
  <path class="cls-1" d="M118.67,172.2c3.87,3.08,8.11,5.73,12.71,7.83v-62.98h-12.71v55.15Z"/>
  <path class="cls-3" d="M158.84,117.05c0-2.18.02-7.35.03-12.42h-52.93c.01,30.81.02,11.68.03,54.33-11.18-15.78-17.41-34.99-17.73-54.33h-13.07c-.32,19.32-6.54,38.51-17.71,54.29.01-42.63.02-23.48.04-54.29H4.59c0,4.94,0,10.71,0,12.42,4.91,0,9.82,0,14.74,0,0,51.31.01,15.8.02,67.11-3.37.36-6.75.71-10.12,1.07,0,4.3,0,8.6,0,12.9,16.47-.09,32.6-6.78,45.18-17.4,12.58-10.62,21.73-25,27.3-40.5,5.56,15.51,14.68,29.91,27.26,40.55,12.58,10.64,28.74,17.32,45.21,17.33,0-4.29,0-8.58,0-12.87-3.36-.35-6.73-.71-10.09-1.06,0-51.32.01-15.8.02-67.12,4.91,0,9.82,0,14.73,0ZM44.76,169.66v2.52c-3.88,3.09-8.11,5.73-12.71,7.84v-62.97h12.71v52.61ZM131.38,180.03c-4.6-2.11-8.84-4.75-12.71-7.83v-55.15h12.71v62.98Z"/>
  <path class="cls-2" d="M142.65,14.07c1.68-.03,56.14-.28,75.02-14.07L67.07.06C34.49.51,3.84,4.15.26,31.83c-1.03,7.98,1.17,14.79,4.4,19.63,1.02,1.54,2.15,2.88,3.31,3.99-.58-1.12-1.11-2.48-1.52-3.99-1.78-6.62-1.23-16.1,7.23-20.91-3.85,3.59-7.7,10.27-6.42,16.56,3.08-6.29,11.81-11.22,22.69-9.56,12.84,1.96,19.77,6.97,23.5,13.91h62.19c4.83-5.05,11.69-7.44,15.97-8.14,7.12-1.16,12.77-2.66,18.16-6.57-8.06-.21-17.72-.17-24.27-.34l.07-.06c21.87-1.35,34.68-3.51,42.04-9.85-8.22.26-19.05.27-30.03.08,28.5-.96,43.12-4.81,54.67-11.94-9.63.39-35.35.02-49.6-.56Z"/>
</svg>